<svg width="24" height="24" viewBox="0 0 24 24" fill="none" xmlns="http://www.w3.org/2000/svg">
<mask id="mask0_5_2270" style="mask-type:alpha" maskUnits="userSpaceOnUse" x="0" y="0" width="24" height="24">
<rect width="24" height="24" fill="#D9D9D9"/>
</mask>
<g mask="url(#mask0_5_2270)">
<path d="M6.3077 19.5002C5.80257 19.5002 5.375 19.3252 5.025 18.9752C4.675 18.6252 4.5 18.1976 4.5 17.6925V15.0002H5.99997V17.6925C5.99997 17.7694 6.03202 17.8399 6.09612 17.904C6.16024 17.9681 6.23077 18.0002 6.3077 18.0002H17.6922C17.7692 18.0002 17.8397 17.9681 17.9038 17.904C17.9679 17.8399 18 17.7694 18 17.6925V15.0002H19.5V17.6925C19.5 18.1976 19.325 18.6252 18.975 18.9752C18.625 19.3252 18.1974 19.5002 17.6922 19.5002H6.3077ZM11.25 15.6155V7.21555L8.78462 9.68092L7.7308 8.59632L12 4.32715L16.2692 8.59632L15.2153 9.68092L12.7499 7.21555V15.6155H11.25Z" fill="#FC541B"/>
</g>
</svg>
